<svg width="94" height="94" viewBox="0 0 94 94" fill="none" xmlns="http://www.w3.org/2000/svg">
<path d="M56.2627 56.3115H71.8877V71.9365" stroke="#EA7637" stroke-width="5" stroke-miterlimit="10" stroke-linecap="round" stroke-linejoin="round"/>
<path d="M15.6377 68.8115H31.2627V53.1865" stroke="#EA7637" stroke-width="5" stroke-miterlimit="10" stroke-linecap="round" stroke-linejoin="round"/>
<path d="M71.8875 57.5616C69.7 60.0616 67.5125 62.5616 65.0125 65.0616C43.1375 86.9366 17.2 96.9366 7.19997 86.9366C-2.80003 76.9366 6.88747 50.9991 29.075 29.1241C51.2625 7.24907 76.8875 -2.75093 86.8875 7.24907C91.2625 11.6241 91.8875 18.4991 89.3875 26.9366" stroke="#EA7637" stroke-width="5" stroke-miterlimit="10" stroke-linecap="round" stroke-linejoin="round"/>
<path d="M31.2627 67.2488C30.3252 66.6238 29.7002 65.6863 28.7627 64.7488C6.88774 42.8738 -3.11226 16.9363 6.88774 6.9363C16.8877 -3.0637 42.8252 6.6238 64.7002 28.8113C86.5752 50.9988 96.5752 76.6238 86.5752 86.6238C81.2627 91.9363 71.5752 91.6238 60.3252 86.9363" stroke="#EA7637" stroke-width="5" stroke-miterlimit="10" stroke-linecap="round" stroke-linejoin="round"/>
</svg>
