<svg width="69" height="100" viewBox="0 0 69 100" fill="none" xmlns="http://www.w3.org/2000/svg">
<path d="M18.7715 88.7371C18.7715 89.9671 19.1262 91.1671 19.8036 92.1926L23.1516 97.2107C24.1771 98.7489 26.5054 100 28.3552 100H40.4014C42.2449 100 44.5737 98.7497 45.5992 97.2107L48.9355 92.1945C49.5094 91.3276 49.9801 89.7783 49.9801 88.7371L50.0051 81.0801H18.7519L18.7715 88.7371ZM34.2613 0.000163152C14.3452 0.0612046 0 16.2043 0 34.2003C0 42.8692 3.21127 50.7723 8.50868 56.8198C11.7375 60.4999 16.7791 68.194 18.7089 74.683C18.7151 74.7318 18.7273 74.7839 18.7334 74.8358H50.0256C50.0317 74.7839 50.0439 74.7349 50.05 74.683C51.979 68.194 57.0215 60.4999 60.2503 56.8198C65.5536 50.9403 68.757 43.0489 68.757 34.2003C68.757 15.3527 53.3062 -0.0578311 34.2613 0.000163152ZM34.3785 18.7515C25.7585 18.7515 18.7519 25.7619 18.7519 34.2023C18.7519 36.095 17.3455 37.5014 15.6266 37.5014C13.9077 37.5014 12.5013 36.095 12.5013 34.3761C12.5013 22.3124 22.3167 12.6747 34.3785 12.6747C36.106 12.6747 37.5038 14.073 37.5038 15.8C37.5038 17.5269 36.0974 18.7515 34.3785 18.7515Z" fill="#EA7637"/>
</svg>
