<svg width="100" height="100" viewBox="0 0 100 100" fill="none" xmlns="http://www.w3.org/2000/svg">
<path d="M0 0V80.6452H100V0H0ZM96.7742 77.4194H3.22581V3.22581H96.7742V77.4194Z" fill="#EA7637"/>
<path d="M62.9033 6.45166H6.45166V41.9355H62.9033V6.45166ZM59.6775 38.7097H9.67747V9.67747H59.6775V38.7097Z" fill="#EA7637"/>
<path d="M93.5485 6.45166H66.1292V9.67747H93.5485V6.45166Z" fill="#EA7637"/>
<path d="M93.5485 12.9033H66.1292V16.1291H93.5485V12.9033Z" fill="#EA7637"/>
<path d="M93.5485 19.355H66.1292V22.5808H93.5485V19.355Z" fill="#EA7637"/>
<path d="M93.5485 25.8066H66.1292V29.0324H93.5485V25.8066Z" fill="#EA7637"/>
<path d="M93.5485 32.2583H66.1292V35.4841H93.5485V32.2583Z" fill="#EA7637"/>
<path d="M93.5485 38.7095H66.1292V41.9353H93.5485V38.7095Z" fill="#EA7637"/>
<path d="M33.871 45.1611H6.45166V74.1934H33.871V45.1611ZM30.6452 70.9676H9.67747V48.3869H30.6452V70.9676Z" fill="#EA7637"/>
<path d="M37.0967 74.1934H62.9031V45.1611H37.0967V74.1934ZM40.3225 48.3869H59.6773V70.9676H40.3225V48.3869Z" fill="#EA7637"/>
<path d="M93.5485 45.1611H66.1292V74.1934H93.5485V45.1611ZM90.3227 70.9676H69.355V48.3869H90.3227V70.9676Z" fill="#EA7637"/>
<path d="M33.8709 35.484C40.0967 35.484 45.1612 30.4195 45.1612 24.1936C45.1612 17.9678 40.0967 12.9033 33.8709 12.9033C27.6451 12.9033 22.5806 17.9678 22.5806 24.1936C22.5806 30.4195 27.6451 35.484 33.8709 35.484ZM33.8709 16.1291C38.3177 16.1291 41.9354 19.7469 41.9354 24.1936C41.9354 28.6404 38.3177 32.2582 33.8709 32.2582C29.4241 32.2582 25.8064 28.6404 25.8064 24.1936C25.8064 19.7469 29.4241 16.1291 33.8709 16.1291Z" fill="#EA7637"/>
<path d="M91.9355 83.8711H15.7001L1.58716 91.9356L15.7001 100H91.9355C96.3823 100 100 96.3824 100 91.9356C100 87.4888 96.3823 83.8711 91.9355 83.8711ZM16.1291 96.5292L8.09038 91.9356L16.1291 87.3421V96.5292ZM77.4194 96.7743H19.3549V87.0969H77.4194V96.7743ZM83.871 96.7743H80.6452V87.0969H83.871V96.7743ZM91.9355 96.7743H87.0968V87.0969H91.9355C94.6033 87.0969 96.7742 89.2679 96.7742 91.9356C96.7742 94.6034 94.6033 96.7743 91.9355 96.7743Z" fill="#EA7637"/>
</svg>
