<svg width="98" height="100" viewBox="0 0 98 100" fill="none" xmlns="http://www.w3.org/2000/svg">
<path d="M51.4887 48.7404V2.81074C51.4887 1.24922 50.2395 0 48.6779 0C47.1164 0 45.8672 1.24922 45.8672 2.81074V48.7404C39.3504 50.0521 34.416 55.8193 34.416 62.7316C34.416 69.644 39.3504 75.4112 45.8672 76.7229V97.1684C45.8672 98.73 47.1164 99.9792 48.6779 99.9792C50.2395 99.9792 51.4887 98.73 51.4887 97.1684V76.7229C58.0054 75.4112 62.9399 69.644 62.9399 62.7316C62.9399 55.8401 58.0263 50.0521 51.4887 48.7404ZM48.6779 71.3721C43.9101 71.3721 40.0375 67.4995 40.0375 62.7316C40.0375 57.9638 43.9101 54.0912 48.6779 54.0912C53.4458 54.0912 57.3184 57.9638 57.3184 62.7316C57.3184 67.4995 53.4458 71.3721 48.6779 71.3721Z" fill="#EA7637"/>
<path d="M17.0727 25.1718V2.81074C17.0727 1.24922 15.8234 0 14.2619 0C12.7004 0 11.4512 1.24922 11.4512 2.81074V25.1718C4.93442 26.4834 0 32.2507 0 39.163C0 46.0754 4.93442 51.8426 11.4512 53.1543V97.1684C11.4512 98.73 12.7004 99.9792 14.2619 99.9792C15.8234 99.9792 17.0727 98.73 17.0727 97.1684V53.1335C23.5894 51.8218 28.5238 46.0546 28.5238 39.1422C28.5238 32.2299 23.5894 26.4834 17.0727 25.1718ZM14.2619 47.8035C9.49407 47.8035 5.62149 43.9309 5.62149 39.163C5.62149 34.3952 9.49407 30.5226 14.2619 30.5226C19.0298 30.5226 22.9024 34.3952 22.9024 39.163C22.9024 43.9309 19.009 47.8035 14.2619 47.8035Z" fill="#EA7637"/>
<path d="M85.6964 25.1718V2.81074C85.6964 1.24922 84.4472 0 82.8857 0C81.3242 0 80.075 1.24922 80.075 2.81074V25.1718C73.5582 26.4834 68.6238 32.2507 68.6238 39.163C68.6238 46.0754 73.5582 51.8426 80.075 53.1543V97.1893C80.075 98.7508 81.3242 100 82.8857 100C84.4472 100 85.6964 98.7508 85.6964 97.1893V53.1335C92.2132 51.8218 97.1476 46.0546 97.1476 39.1422C97.1476 32.2299 92.234 26.4834 85.6964 25.1718ZM82.8857 47.8035C78.1178 47.8035 74.2453 43.9309 74.2453 39.163C74.2453 34.3952 78.1178 30.5226 82.8857 30.5226C87.6536 30.5226 91.5261 34.3952 91.5261 39.163C91.5261 43.9309 87.6536 47.8035 82.8857 47.8035Z" fill="#EA7637"/>
</svg>
