<svg width="124" height="100" viewBox="0 0 124 100" fill="none" xmlns="http://www.w3.org/2000/svg">
<path d="M117.601 68.0848C121.02 68.0848 123.791 65.314 123.791 61.8953V6.18953C123.791 2.77078 121.02 0 117.601 0H6.18953C2.77078 0 0 2.77078 0 6.18953V61.8953C0 65.314 2.77078 68.0848 6.18953 68.0848H9.29879C10.1448 69.7663 11.1929 71.328 12.5028 72.6527C5.28382 74.922 0 81.5966 0 89.5542V96.9052C0 98.6156 1.38442 100 3.09476 100H120.696C122.406 100 123.791 98.6156 123.791 96.9052V89.5542C123.791 81.5966 118.507 74.9223 111.288 72.6527C112.598 71.3282 113.646 69.7663 114.492 68.0848H117.601ZM117.601 89.5542V93.8105H6.18953V89.5542C6.18953 83.1563 11.3969 77.9488 17.7949 77.9488H32.495C35.8373 77.9488 38.9258 79.3724 41.1935 81.9597C42.3654 83.3069 44.676 83.3069 45.8479 81.9597C48.1153 79.3724 51.2041 77.9488 54.5464 77.9488H69.2465C72.5889 77.9488 75.6773 79.3724 77.945 81.9597C79.1169 83.3069 81.4276 83.3069 82.5995 81.9597C84.8669 79.3724 87.9556 77.9488 91.2979 77.9488H105.998C112.394 77.9488 117.601 83.1563 117.601 89.5542ZM13.5386 60.154C13.5386 53.756 18.746 48.5486 25.144 48.5486C31.5419 48.5486 36.7493 53.756 36.7493 60.154C36.7493 66.5519 31.5439 71.7593 25.144 71.7593C18.746 71.7593 13.5386 66.5519 13.5386 60.154ZM37.8076 72.63C39.1074 71.3096 40.1492 69.756 40.9911 68.0848H46.0501C46.8919 69.756 47.9338 71.3096 49.2336 72.63C47.1765 73.2881 45.2331 74.2888 43.5206 75.6546C41.8081 74.2866 39.8647 73.2881 37.8076 72.63ZM50.2899 60.154C50.2899 53.756 55.4973 48.5486 61.8953 48.5486C68.2932 48.5486 73.5006 53.756 73.5006 60.154C73.5006 66.5519 68.2932 71.7593 61.8953 71.7593C55.4973 71.7593 50.2899 66.5519 50.2899 60.154ZM74.5569 72.63C75.8589 71.3096 76.9007 69.756 77.7404 68.0848H82.7994C83.6413 69.756 84.6831 71.3096 85.9829 72.63C83.9259 73.2881 81.9824 74.2888 80.2699 75.6546C78.5574 74.2866 76.614 73.2881 74.5569 72.63ZM87.0392 60.154C87.0392 53.756 92.2467 48.5486 98.6446 48.5486C105.043 48.5486 110.25 53.756 110.25 60.154C110.25 66.5519 105.043 71.7593 98.6446 71.7593C92.2467 71.7593 87.0392 66.5519 87.0392 60.154ZM98.6446 42.3591C88.832 42.3591 80.8497 50.3414 80.8497 60.154C80.8497 60.7502 80.9694 61.3135 81.025 61.8953H79.5148C79.5726 61.3135 79.6901 60.7502 79.6901 60.154C79.6901 50.3414 71.7076 42.3591 61.8953 42.3591C52.0829 42.3591 44.1004 50.3414 44.1004 60.154C44.1004 60.7502 44.2179 61.3135 44.2757 61.8953H42.7633C42.8211 61.3135 42.9386 60.7502 42.9386 60.154C42.9386 50.3414 34.9563 42.3591 25.1437 42.3591C15.3312 42.3591 7.34885 50.3414 7.34885 60.154C7.34885 60.7502 7.46853 61.3135 7.52414 61.8953H6.18953V6.18953H117.601V61.8953H116.264C116.322 61.3135 116.439 60.7502 116.439 60.154C116.439 50.3414 108.457 42.3591 98.6446 42.3591Z" fill="#EA7637"/>
</svg>
