<svg width="143" height="100" viewBox="0 0 143 100" fill="none" xmlns="http://www.w3.org/2000/svg">
<path d="M136.303 69.0333C136.883 65.8852 136.883 62.6702 136.303 59.5222L142.063 56.1956C142.733 55.816 143.023 55.0346 142.8 54.2978C141.304 49.4753 138.736 45.0994 135.387 41.4825C134.874 40.9243 134.048 40.7904 133.378 41.1699L127.618 44.4965C125.184 42.4202 122.393 40.8127 119.379 39.741V33.0877C119.379 32.3286 118.843 31.6589 118.107 31.5026C113.128 30.3862 108.06 30.4309 103.327 31.5026C102.59 31.6589 102.054 32.3286 102.054 33.0877V39.741C99.04 40.8127 96.2492 42.4202 93.8156 44.4965L88.0554 41.1699C87.4079 40.7904 86.5595 40.9243 86.046 41.4825C82.697 45.0994 80.1295 49.4753 78.6336 54.2978C78.4104 55.0346 78.7229 55.816 79.3704 56.1956L85.1306 59.5222C84.5501 62.6702 84.5501 65.8852 85.1306 69.0333L79.3704 72.3599C78.7006 72.7395 78.4104 73.5209 78.6336 74.2577C80.1295 79.0802 82.697 83.4338 86.046 87.073C86.5595 87.6312 87.3856 87.7651 88.0554 87.3856L93.8156 84.0589C96.2492 86.1353 99.04 87.7428 102.054 88.8145V95.4677C102.054 96.2268 102.59 96.8966 103.327 97.0529C108.305 98.1692 113.374 98.1246 118.107 97.0529C118.843 96.8966 119.379 96.2268 119.379 95.4677V88.8145C122.393 87.7428 125.184 86.1353 127.618 84.0589L133.378 87.3856C134.025 87.7651 134.874 87.6312 135.387 87.073C138.736 83.4561 141.304 79.0802 142.8 74.2577C143.023 73.5209 142.71 72.7395 142.063 72.3599L136.303 69.0333ZM110.739 75.1061C104.756 75.1061 99.9107 70.2389 99.9107 64.2777C99.9107 58.3166 104.778 53.4494 110.739 53.4494C116.7 53.4494 121.567 58.3166 121.567 64.2777C121.567 70.2389 116.722 75.1061 110.739 75.1061ZM21.4334 42.8444C29.3146 42.8444 35.7223 36.4367 35.7223 28.5555C35.7223 20.6743 29.3146 14.2666 21.4334 14.2666C13.5521 14.2666 7.14445 20.6743 7.14445 28.5555C7.14445 36.4367 13.5521 42.8444 21.4334 42.8444ZM71.4445 49.9888C71.8687 49.9888 72.2706 49.8772 72.6948 49.8549C74.5479 45.01 77.2717 40.4555 80.7993 36.6376C82.4514 34.8515 84.7957 33.8245 87.2516 33.8245C88.7921 33.8245 90.3103 34.2264 91.6276 35.0078L93.3914 36.0348C93.57 35.9232 93.7486 35.8339 93.9272 35.7223C95.4901 32.4626 96.4278 28.8457 96.4278 25.0056C96.4278 11.1855 85.2422 0 71.4222 0C57.6021 0 46.4389 11.1632 46.4389 24.9833C46.4389 38.8033 57.6245 49.9888 71.4445 49.9888ZM94.9319 93.4137C94.4184 93.1458 93.9049 92.8332 93.4137 92.543C91.5829 93.6146 89.9978 94.731 87.2739 94.731C84.8404 94.731 82.4961 93.704 80.8216 91.9178C76.7359 87.4972 73.6102 82.1165 71.8464 76.3787C69.4575 68.676 77.4057 65.2824 77.6066 65.1485C77.5843 64.568 77.5843 63.9875 77.6066 63.407L75.8428 62.38C74.9944 61.8888 74.28 61.2637 73.6548 60.5716C72.9181 60.6162 72.2036 60.7055 71.4668 60.7055C65.9745 60.7055 60.8395 59.3659 56.1733 57.1333H54.3202C40.0982 57.1333 28.5778 68.6537 28.5778 82.8533V89.2833C28.5778 95.1998 33.378 100 39.2945 100H96.3161C95.4901 98.6604 94.9319 97.1422 94.9319 95.4677V93.4137ZM38.647 54.1416C36.0572 51.574 32.5073 49.9888 28.5778 49.9888H14.2889C6.40768 49.9888 0 56.3965 0 64.2777V71.4222C0 75.374 3.19268 78.5666 7.14445 78.5666H21.8576C23.2641 67.9839 29.6495 59.0757 38.647 54.1416V54.1416Z" fill="#EA7637"/>
</svg>
