<svg width="100" height="100" viewBox="0 0 100 100" fill="none" xmlns="http://www.w3.org/2000/svg">
<path d="M30.5873 75.1792L24.5519 68.968C22.8916 67.4836 22.3057 65.0616 22.8721 62.8544C23.4581 61.1161 24.2393 58.8504 25.3527 56.2526H4.68769C3.00402 56.2526 1.4481 55.3541 0.614465 53.8892C-0.219361 52.4243 -0.20354 50.6273 0.655678 49.182L10.9048 31.896C13.4361 27.6185 18.034 24.8254 23.0088 24.8254H39.0642C39.533 24.2199 40.0018 23.4972 40.4705 22.7941C56.4673 -0.794872 80.2965 -1.59022 94.5159 1.0304C96.8012 1.4482 98.5591 3.20921 98.9692 5.4808C101.587 19.708 100.805 43.5372 77.2105 59.534C76.5268 60.0028 75.6088 60.4715 75.0033 60.7645V76.9957C75.0033 81.9764 72.386 86.5664 68.1085 89.1056L50.8226 99.3404C49.3772 100.2 47.5802 100.219 46.1153 99.399C44.6504 98.5592 43.7519 96.9966 43.7519 95.3168V74.3784C40.9979 75.3159 38.5955 76.1168 36.779 76.7027C34.5914 77.4059 32.2085 76.8004 30.5873 75.1792ZM75.0033 32.6383C79.3199 32.6383 82.8162 29.3178 82.8162 24.8254C82.8162 20.6846 79.3199 17.0126 75.0033 17.0126C70.6867 17.0126 67.1905 20.6846 67.1905 24.8254C67.1905 29.3178 70.6867 32.6383 75.0033 32.6383Z" fill="#EA7637"/>
</svg>
