<svg width="129" height="100" viewBox="0 0 129 100" fill="none" xmlns="http://www.w3.org/2000/svg">
<path d="M33.3992 57.3226C33.4938 57.3768 36.8043 59.2584 39.5327 59.2584C42.2611 59.2584 45.6852 57.3768 45.7832 57.3226H47.0533C49.1087 57.3287 50.7636 58.9874 50.7636 61.0328V75.292C50.7636 77.7731 48.7523 79.7844 46.2712 79.7844V96.6307C46.2712 98.4916 44.7628 100 42.9019 100H36.1634C34.3026 100 32.7941 98.4916 32.7941 96.6307V79.7844C30.3131 79.7844 28.3018 77.7731 28.3018 75.292V61.1498C28.3018 59.0401 30.0089 57.329 32.129 57.3226H33.3992ZM58.1072 57.3226C58.2018 57.3768 61.5124 59.2584 64.2407 59.2584C66.9689 59.2584 70.3932 57.3768 70.4912 57.3226H71.7613C73.8167 57.3287 75.4716 58.9874 75.4716 61.0328V75.292C75.4716 77.7731 73.4603 79.7844 70.9792 79.7844V96.6307C70.9792 98.4916 69.4708 100 67.6099 100H60.8714C59.0106 100 57.5021 98.4916 57.5021 96.6307V79.7844C55.0211 79.7844 53.0098 77.7731 53.0098 75.292V61.1498C53.0098 59.0401 54.7169 57.329 56.837 57.3226H58.1072ZM92.3179 100H85.5794C83.7186 100 82.2101 98.4916 82.2101 96.6307V79.7844C79.7291 79.7844 77.7178 77.7731 77.7178 75.292V61.1498C77.7178 59.0361 79.4313 57.3226 81.545 57.3226H82.8152C82.8152 57.3226 86.1814 59.2584 88.9487 59.2584C91.716 59.2584 95.1992 57.3226 95.1992 57.3226H96.4693C98.5185 57.3226 100.18 58.9836 100.18 61.0328V75.292C100.18 77.7731 98.1683 79.7844 95.6872 79.7844V96.6307C95.6872 98.4869 94.1863 99.9924 92.3179 100ZM39.5327 55.0764C44.4948 55.0764 48.5174 51.0538 48.5174 46.0917C48.5174 41.1296 44.4948 37.1069 39.5327 37.1069C34.5706 37.1069 30.5479 41.1296 30.5479 46.0917C30.5479 51.0538 34.5706 55.0764 39.5327 55.0764ZM64.2407 55.0764C69.2028 55.0764 73.2254 51.0538 73.2254 46.0917C73.2254 41.1296 69.2028 37.1069 64.2407 37.1069C59.2786 37.1069 55.2559 41.1296 55.2559 46.0917C55.2559 51.0538 59.2786 55.0764 64.2407 55.0764ZM97.9334 46.0917C97.9334 51.0538 93.9108 55.0764 88.9487 55.0764C83.9866 55.0764 79.9639 51.0538 79.9639 46.0917C79.9639 41.1296 83.9866 37.1069 88.9487 37.1069C93.9108 37.1069 97.9334 41.1296 97.9334 46.0917Z" fill="#EA7637"/>
<path d="M9.43396 44.0254L11.552 50.5441H18.4062L12.861 54.5729L14.9791 61.0916L9.43396 57.0628L3.88882 61.0916L6.00687 54.5729L0.461731 50.5441H7.31591L9.43396 44.0254Z" fill="#EA7637"/>
<path d="M118.868 44.0254L120.986 50.5441H127.84L122.295 54.5729L124.413 61.0916L118.868 57.0628L113.323 61.0916L115.441 54.5729L109.896 50.5441H116.75L118.868 44.0254Z" fill="#EA7637"/>
<path d="M99.9999 9.43408L102.118 15.9528H108.972L103.427 19.9816L105.545 26.5003L99.9999 22.4715L94.4547 26.5003L96.5728 19.9816L91.0276 15.9528H97.8818L99.9999 9.43408Z" fill="#EA7637"/>
<path d="M64.1508 0L66.2688 6.51871H73.123L67.5778 10.5475L69.6959 17.0662L64.1508 13.0374L58.6056 17.0662L60.7237 10.5475L55.1785 6.51871H62.0327L64.1508 0Z" fill="#EA7637"/>
<path d="M18.868 9.43408L20.9861 15.9528H27.8403L22.2951 19.9816L24.4132 26.5003L18.868 22.4715L13.3229 26.5003L15.441 19.9816L9.89581 15.9528H16.75L18.868 9.43408Z" fill="#EA7637"/>
</svg>
