<svg width="110" height="100" viewBox="0 0 110 100" fill="none" xmlns="http://www.w3.org/2000/svg">
<path d="M72.166 71.1055H38.5648C32.3508 71.1055 27.2292 76.2649 27.2292 82.4822V100.001H83.3539V82.4822C83.3607 76.2649 78.3731 71.1055 72.166 71.1055Z" fill="#EA7637"/>
<path d="M55.3618 64.723C64.2706 64.723 71.4926 57.501 71.4926 48.5922C71.4926 39.6834 64.2706 32.4614 55.3618 32.4614C46.453 32.4614 39.231 39.6834 39.231 48.5922C39.231 57.501 46.453 64.723 55.3618 64.723Z" fill="#EA7637"/>
<path d="M30.9048 27.518C30.9048 24.0933 28.1465 21.3247 24.7286 21.3247H6.24828C2.83045 21.3247 0 24.0968 0 27.518V37.1945H30.9048V27.518Z" fill="#EA7637"/>
<path d="M15.4886 17.7453C20.3888 17.7453 24.3612 13.7728 24.3612 8.87263C24.3612 3.97241 20.3888 0 15.4886 0C10.5884 0 6.61597 3.97241 6.61597 8.87263C6.61597 13.7728 10.5884 17.7453 15.4886 17.7453Z" fill="#EA7637"/>
<path d="M103.658 21.3247H85.1778C81.76 21.3247 79.012 24.0933 79.012 27.518V37.1945H109.748V27.5215C109.748 24.0968 107.076 21.3247 103.658 21.3247Z" fill="#EA7637"/>
<path d="M94.4149 17.7453C99.3151 17.7453 103.287 13.7728 103.287 8.87263C103.287 3.97241 99.3151 0 94.4149 0C89.5146 0 85.5422 3.97241 85.5422 8.87263C85.5422 13.7728 89.5146 17.7453 94.4149 17.7453Z" fill="#EA7637"/>
<path d="M41.6941 21.9938H70.0879C72.0459 21.9938 73.6363 20.448 73.6363 18.4867C73.6363 16.5253 72.0459 14.9761 70.0879 14.9761H41.6941C39.7327 14.9761 38.1458 16.5253 38.1458 18.4867C38.1458 20.4446 39.7327 21.9938 41.6941 21.9938Z" fill="#EA7637"/>
<path d="M30.3589 67.1167C31.0802 67.1167 31.8084 66.9038 32.4405 66.4469C34.0275 65.2928 34.3778 63.0772 33.2305 61.4936L20.2806 43.6144C19.1264 42.0206 16.9108 41.6702 15.3238 42.8209C13.7334 43.9716 13.3831 46.1907 14.5338 47.7776L27.4803 65.6603C28.1776 66.6152 29.2631 67.1167 30.3589 67.1167Z" fill="#EA7637"/>
<path d="M92.556 43.1535C90.9072 42.0887 88.7156 42.5764 87.6577 44.2252L76.487 61.6579C75.4222 63.3033 75.9099 65.5017 77.5587 66.5665C78.1496 66.9375 78.8091 67.1196 79.4755 67.1196C80.6434 67.1196 81.7907 66.5494 82.4639 65.4845L93.6311 48.0587C94.6891 46.4133 94.2082 44.2149 92.556 43.1535Z" fill="#EA7637"/>
</svg>
